<svg xmlns="http://www.w3.org/2000/svg" viewBox="0 0 110 33"><g fill="none" fill-rule="nonzero"><path fill="#FE2D5B" d="M8.245 6.332a.317.317 0 0 0 .425.027 12.7 12.7 0 0 1 2.566-1.558v11.738l.01.085a5.28 5.28 0 0 0 3.43 4.854l.111.019a.323.323 0 0 0 .321-.322v-4.346l-.005-.054-.016-.123.021-.115V.411a.322.322 0 0 0-.321-.322l-.034.002a16.239 16.239 0 0 0-8.622 3.615.323.323 0 0 0-.023.476L8.245 6.33v.002zm20.912-.282a.32.32 0 0 0-.232-.118h-.016a.324.324 0 0 0-.227.094l-2.138 2.15a.32.32 0 0 0-.026.424 12.702 12.702 0 0 1 2.683 7.85c0 7.05-5.706 12.787-12.72 12.787S3.761 23.501 3.761 16.45c0-2.871.928-5.586 2.683-7.85a.322.322 0 0 0-.026-.425L4.28 6.025a.318.318 0 0 0-.227-.094h-.016a.318.318 0 0 0-.232.118 16.53 16.53 0 0 0-3.687 10.4c0 9.07 7.342 16.449 16.365 16.449s16.365-7.379 16.365-16.449c0-3.782-1.309-7.475-3.688-10.4l-.003.001zM16.48 23.866c-4.068 0-7.378-3.327-7.378-7.416 0-1.434.409-2.826 1.184-4.026a.32.32 0 0 0-.043-.401L8.127 9.896a.32.32 0 0 0-.227-.095l-.024.001a.322.322 0 0 0-.235.13 10.964 10.964 0 0 0-2.125 6.518c0 6.077 4.918 11.019 10.964 11.019 6.045 0 10.963-4.943 10.963-11.019 0-4.126-2.245-7.847-5.874-9.759V4.732c.971.427 1.885.973 2.72 1.627.128.1.31.09.425-.026l2.137-2.148a.318.318 0 0 0 .093-.243.32.32 0 0 0-.117-.233 16.224 16.224 0 0 0-8.78-3.631l-.03-.002a.32.32 0 0 0-.321.321v8.468a.32.32 0 0 0 .257.315c3.42.697 5.903 3.754 5.903 7.268 0 4.089-3.309 7.416-7.377 7.416l.001.002z"/><path fill="#000" d="M44.316 10.382l-4.481 12.227h1.517l1.099-3.407h4.864l1.049 3.407h1.467l-4.283-12.227h-1.232zM42.9 17.966l2.018-5.699 1.963 5.699H42.9zm6.187-6.348h3.566v10.991h1.233V11.618h3.665v-1.236h-8.464v1.236zm17.151-.653c-.589-.444-1.611-.669-3.066-.669-1.01 0-1.831.118-2.466.352-.368.13-.697.351-.957.643-.251.283-.478.654-.691 1.111-.211.457-.367 1.034-.467 1.727-.108.807-.159 1.62-.152 2.434 0 .922.044 1.722.134 2.397.09.672.233 1.231.433 1.677.199.446.422.804.667 1.077.243.273.56.48.949.62.391.137.773.23 1.15.273.377.045.869.068 1.476.068.604 0 1.127-.039 1.572-.115a4.009 4.009 0 0 0 1.292-.478c.419-.243.76-.6.984-1.028.237-.444.427-1.04.566-1.78.139-.741.206-1.756.206-3.047 0-1.292-.137-2.43-.414-3.408-.243-.801-.65-1.42-1.216-1.856v.002zm-.066 9.124c-.156.365-.379.648-.667.842-.29.195-.613.327-.965.4-.355.075-.85.109-1.483.109-.634 0-1.15-.05-1.55-.149-.4-.102-.752-.323-1.06-.668-.303-.346-.509-.835-.615-1.47a13.64 13.64 0 0 1-.158-2.171c0-.814.015-1.442.049-1.888.034-.445.076-.839.124-1.17.052-.334.13-.626.242-.879.113-.249.216-.459.308-.624.096-.17.23-.312.411-.43.176-.113.332-.204.466-.265.134-.059.325-.107.574-.134.251-.029.455-.045.617-.05l.073-.002v3.365h1.233v-3.367l.118.003c.169.005.376.021.624.05.252.027.44.075.566.134.129.061.28.152.461.265.177.118.309.26.397.43.089.165.189.376.302.631.266.604.398 1.777.398 3.527 0 1.604-.154 2.774-.464 3.51l-.001.001zm5.021 1.184c-.233-.088-.352-.346-.352-.769V10.382h-1.233v10.122c0 .903.244 1.493.736 1.772.389.223.898.333 1.532.333h5.097v-1.236h-5.097c-.278 0-.505-.031-.682-.1h-.001zm9.427-4.476l-3.148-6.415h-1.35l3.883 7.883v4.344h1.233v-4.344l4.215-7.883h-1.35l-3.483 6.415zm7.979-6.415c-.567 0-1.041.168-1.422.507-.384.341-.576.893-.576 1.664v8.001c0 1.405.673 2.105 2.018 2.105h.249l5.097-.283v-.953h-5.097a3.8 3.8 0 0 1-.499-.024c-.113-.017-.226-.093-.35-.227-.122-.131-.185-.336-.185-.617v-3.343l5.467-.163v-.99l-5.467-.166v-3.339c0-.202.01-.352.025-.459.018-.105.096-.211.233-.319.14-.105.342-.157.61-.157h5.263v-.969l-5.263-.267H88.6l-.001-.001zm6.567 1.37v1.77l2.184-.485v9.571h2.732V10.381h-2.716l-2.2 1.37v.001zm14.116 3.966c-.46-.562-1.159-.873-2.089-.927a15.31 15.31 0 0 0-.951-.032c-.789 0-1.374.134-1.749.402l.099-2.289h4.897v-2.489h-7.546l-.367 7.651h2.602c0-.591.299-.885.898-.885h1.2c.378 0 .633.095.765.284.135.189.201.444.201.768v.853c0 .267-.048.493-.149.685-.132.244-.457.368-.969.368h-4.563v2.171c1.043.178 1.884.289 2.524.333.638.045 1.53.068 2.674.068.809 0 1.525-.23 2.147-.687.324-.221.581-.543.776-.958.195-.419.29-.9.29-1.444v-1.656c0-.913-.23-1.651-.69-2.215v-.001z"/></g></svg>
