<svg xmlns="http://www.w3.org/2000/svg" width="431" height="420" viewBox="0 0 431 420"><path fill="#2D2E33" fill-rule="evenodd" d="M215.5 0C96.436 0 0 96.352 0 215.312c0 95.275 61.687 175.748 147.348 204.277 10.775 1.884 14.816-4.576 14.816-10.228 0-5.113-.27-22.07-.27-40.101-54.144 9.958-68.151-13.188-72.462-25.3-2.424-6.19-12.93-25.299-22.088-30.412-7.543-4.037-18.318-13.996-.27-14.265 16.971-.269 29.093 15.61 33.133 22.07 19.396 32.566 50.374 23.415 62.765 17.763 1.885-13.995 7.542-23.415 13.738-28.798-47.949-5.383-98.053-23.953-98.053-106.31 0-23.415 8.351-42.793 22.09-57.865-2.156-5.383-9.698-27.452 2.154-57.058 0 0 18.048-5.652 59.263 22.07 17.24-4.845 35.557-7.267 53.875-7.267 18.317 0 36.635 2.422 53.875 7.267 41.214-27.99 59.262-22.07 59.262-22.07 11.853 29.606 4.31 51.675 2.155 57.058 13.738 15.072 22.089 34.18 22.089 57.865 0 82.626-50.373 100.927-98.322 106.31 7.812 6.728 14.546 19.647 14.546 39.833 0 28.798-.269 51.944-.269 59.21 0 5.652 4.04 12.38 14.816 10.228C369.313 391.059 431 310.318 431 215.312 431 96.352 334.564 0 215.5 0z"/></svg>
