<svg xmlns="http://www.w3.org/2000/svg" width="210" height="36" viewBox="0 0 210 36"><path fill="#1A1A1A" fill-rule="evenodd" d="M30.411 21.77c0 8.67-5.525 14.061-14.375 14.061C6.4 35.831.493 29.362.493 18.761.493 8.316 6.445 1.758 15.88 1.758c7.66 0 13.297 4.425 14.24 11.163h-6.738c-1.01-3.28-3.729-5.189-7.502-5.189-5.233 0-8.445 4.156-8.445 10.961 0 6.94 3.369 11.163 8.714 11.163 4.448 0 7.525-2.627 7.66-6.536l.022-.584H16.8v-5.098H30.41v4.133zM36.296 35V10.226h6.536V35h-6.536zm3.28-28.233c-2.36 0-3.864-1.37-3.864-3.302 0-1.954 1.505-3.302 3.863-3.302 2.336 0 3.863 1.348 3.863 3.302 0 1.931-1.527 3.302-3.863 3.302zM51.3 4.34h6.536v6.132h5.143v5.143h-5.143v11.14c0 2.157.988 3.145 3.212 3.145.853 0 1.303-.022 1.931-.09v4.987a18.25 18.25 0 0 1-3.279.292c-6.02 0-8.4-1.954-8.4-6.783v-12.69h-3.863v-5.144H51.3V4.34zM68.64 35V.77h6.423V14.29h.405c1.145-2.83 3.84-4.537 7.48-4.537 5.323 0 8.49 3.347 8.49 9.299V35H84.9V20.603c0-3.437-1.594-5.211-4.56-5.211-3.278 0-5.165 2.178-5.165 5.39V35H68.64zm51.547-24.774V35h-6.333v-3.976h-.405c-1.168 2.875-3.481 4.515-7.232 4.515-5.346 0-8.67-3.414-8.67-9.164v-16.15h6.536V24.69c0 3.414 1.55 5.166 4.56 5.166 3.256 0 5.008-2.044 5.008-5.345V10.226h6.537zm21.159 25.156c-3.504 0-6.312-1.572-7.637-4.268h-.404V35h-6.334V.77h6.536v13.409h.404c1.258-2.718 4.043-4.358 7.435-4.358 6.266 0 10.04 4.784 10.04 12.78 0 7.952-3.819 12.78-10.04 12.78zm-2.269-20.08c-3.436 0-5.615 2.807-5.638 7.322.023 4.492 2.18 7.3 5.638 7.3 3.482 0 5.593-2.785 5.593-7.322 0-4.515-2.134-7.3-5.593-7.3zM156.754 35V10.226h6.536V35h-6.536zm3.28-28.233c-2.36 0-3.864-1.37-3.864-3.302 0-1.954 1.505-3.302 3.863-3.302 2.336 0 3.863 1.348 3.863 3.302 0 1.931-1.527 3.302-3.863 3.302zm9.298 10.736c0-4.694 4.133-7.816 10.31-7.816 6.289 0 9.995 2.627 10.354 7.367h-6.042c-.337-1.595-1.842-2.583-4.267-2.583-2.336 0-4.066 1.055-4.066 2.628 0 1.213 1.056 1.954 3.347 2.47l4.65 1.011c4.806 1.056 6.962 3.077 6.962 6.783 0 4.942-4.425 8.176-10.916 8.176-6.536 0-10.49-2.673-10.938-7.435h6.378c.495 1.685 2.09 2.65 4.695 2.65 2.538 0 4.29-1.055 4.29-2.65 0-1.212-.943-1.954-3.122-2.425l-4.492-1.011c-4.807-1.056-7.143-3.347-7.143-7.165zm28.48-13.162h6.537v6.132h5.143v5.143h-5.143v11.14c0 2.157.988 3.145 3.212 3.145.853 0 1.302-.022 1.931-.09v4.987a18.25 18.25 0 0 1-3.28.292c-6.019 0-8.4-1.954-8.4-6.783v-12.69h-3.863v-5.144h3.863V4.34z"/></svg>
