<svg xmlns="http://www.w3.org/2000/svg" width="144" height="25" viewBox="0 0 144 25"><g fill="none" fill-rule="evenodd"><path fill="#2D2E33" d="M18.744 24l-.288-2.88c-.992 1.664-3.328 3.36-6.944 3.36-5.92 0-11.168-4.352-11.168-11.84C.344 5.184 5.88.832 11.768.832c5.504 0 9.024 3.168 10.24 6.912L18.392 9.12c-.768-2.56-3.008-4.736-6.624-4.736-3.68 0-7.52 2.624-7.52 8.256 0 5.536 3.584 8.32 7.488 8.32 4.576 0 6.304-3.136 6.496-5.088h-7.488v-3.36h11.104V24h-3.104zm6.848-21.056c0-1.344 1.088-2.432 2.4-2.432a2.43 2.43 0 0 1 2.432 2.432c0 1.344-1.088 2.4-2.432 2.4a2.397 2.397 0 0 1-2.4-2.4zM26.168 24V8.416h3.68V24h-3.68zM39.352 8.416h3.232v3.296h-3.232v7.232c0 1.376.608 1.952 1.984 1.952.512 0 1.12-.096 1.28-.128v3.072c-.224.096-.928.352-2.272.352-2.88 0-4.672-1.728-4.672-4.64v-7.84h-2.88V8.416h.8c1.664 0 2.4-1.056 2.4-2.432V3.648h3.36v4.768zM50.04 24h-3.712V.832h3.712V9.92c1.056-1.376 2.816-1.952 4.448-1.952 3.84 0 5.696 2.752 5.696 6.176V24h-3.712v-9.216c0-1.92-.864-3.456-3.2-3.456-2.048 0-3.168 1.536-3.232 3.52V24zm24.8-1.728c-.768 1.408-2.592 2.176-4.416 2.176-3.712 0-5.888-2.752-5.888-6.208V8.416h3.712v9.152c0 1.92.896 3.552 3.136 3.552 2.144 0 3.264-1.44 3.264-3.488V8.416h3.712v12.736c0 1.28.096 2.272.16 2.848h-3.552c-.064-.352-.128-1.088-.128-1.728zM83.16 24V.832h3.648v9.504C87.512 9.12 89.304 8 91.704 8c4.672 0 7.2 3.552 7.2 8.128 0 4.704-2.784 8.256-7.328 8.256-2.208 0-3.904-.96-4.8-2.464V24H83.16zm12-7.84c0-3.104-1.728-4.864-4.192-4.864-2.368 0-4.192 1.76-4.192 4.864 0 3.072 1.824 4.928 4.192 4.928 2.432 0 4.192-1.856 4.192-4.928z"/><path fill="#FF5A57" d="M103.144 21.6c0-1.44 1.152-2.624 2.592-2.624a2.636 2.636 0 0 1 2.624 2.624c0 1.44-1.184 2.592-2.624 2.592a2.581 2.581 0 0 1-2.592-2.592zm9.152-18.656c0-1.344 1.088-2.432 2.4-2.432a2.43 2.43 0 0 1 2.432 2.432c0 1.344-1.088 2.4-2.432 2.4a2.397 2.397 0 0 1-2.4-2.4zM112.872 24V8.416h3.68V24h-3.68zm10.336-5.12c.128 1.408 1.184 2.656 3.168 2.656 1.536 0 2.336-.832 2.336-1.792 0-.832-.576-1.472-1.824-1.728l-2.304-.512c-2.752-.608-4.192-2.4-4.192-4.544 0-2.72 2.496-5.024 5.728-5.024 4.352 0 5.76 2.816 6.016 4.352l-3.136.896c-.128-.896-.8-2.336-2.88-2.336-1.312 0-2.24.832-2.24 1.792 0 .832.608 1.44 1.568 1.632l2.368.48c2.944.64 4.48 2.432 4.48 4.736 0 2.368-1.92 4.992-5.888 4.992-4.512 0-6.24-2.944-6.432-4.704l3.232-.896zM140.68 8.416h3.232v3.296h-3.232v7.232c0 1.376.608 1.952 1.984 1.952.512 0 1.12-.096 1.28-.128v3.072c-.224.096-.928.352-2.272.352-2.88 0-4.672-1.728-4.672-4.64v-7.84h-2.88V8.416h.8c1.664 0 2.4-1.056 2.4-2.432V3.648h3.36v4.768z"/></g></svg>
